<svg xmlns="http://www.w3.org/2000/svg" width="95" height="83.125" viewBox="0 0 95 83.125">
  <path id="briefcase-icon_WHT" d="M59.375-20.781a2.968,2.968,0,0,1-2.969,2.969H38.594a2.968,2.968,0,0,1-2.969-2.969v-8.906H0V-2.969A9.132,9.132,0,0,0,8.906,5.938H86.094A9.132,9.132,0,0,0,95-2.969V-29.687H59.375ZM86.094-59.375H71.25v-8.906a9.132,9.132,0,0,0-8.906-8.906H32.656a9.132,9.132,0,0,0-8.906,8.906v8.906H8.906A9.132,9.132,0,0,0,0-50.469v14.844H95V-50.469A9.132,9.132,0,0,0,86.094-59.375Zm-26.719,0H35.625v-5.937h23.75Z" transform="translate(0 77.188)" fill="#fff"/>
</svg>
