<svg xmlns="http://www.w3.org/2000/svg" width="83.125" height="95" viewBox="0 0 83.125 95">
  <path id="lock-icon_WHT" d="M74.219-41.562H69.766V-54.922a28.238,28.238,0,0,0-28.2-28.2,28.238,28.238,0,0,0-28.2,28.2v13.359H8.906A8.909,8.909,0,0,0,0-32.656V2.969a8.909,8.909,0,0,0,8.906,8.906H74.219a8.909,8.909,0,0,0,8.906-8.906V-32.656A8.909,8.909,0,0,0,74.219-41.562Zm-19.3,0H28.2V-54.922A13.375,13.375,0,0,1,41.563-68.281,13.375,13.375,0,0,1,54.922-54.922Z" transform="translate(0 83.125)" fill="#fff"/>
</svg>
