<svg xmlns="http://www.w3.org/2000/svg" width="95.005" height="95.009" viewBox="0 0 95.005 95.009">
  <path id="tools-icon_WHT" d="M92.977-9.7,71.25-31.432A13.777,13.777,0,0,0,55.4-34.011L35.625-53.79V-65.312L11.875-83.125,0-71.25,17.813-47.5H29.335L49.114-27.721a13.807,13.807,0,0,0,2.579,15.846L73.421,9.852a6.9,6.9,0,0,0,9.778,0L92.977.074A6.932,6.932,0,0,0,92.977-9.7ZM61.546-41.377a19.522,19.522,0,0,1,13.9,5.752l3.6,3.6A26.266,26.266,0,0,0,87.17-37.5,26.684,26.684,0,0,0,94.2-62.863a2.221,2.221,0,0,0-3.73-1.021l-13.8,13.8-12.6-2.1-2.1-12.6,13.8-13.8a2.24,2.24,0,0,0-1.058-3.748,26.728,26.728,0,0,0-25.346,7.032A26.294,26.294,0,0,0,41.73-56.072L56.963-40.839A20.209,20.209,0,0,1,61.546-41.377ZM42.268-26.162,31.747-36.683,3.47-8.387a11.871,11.871,0,0,0,0,16.792,11.871,11.871,0,0,0,16.792,0L43.2-14.528A19.927,19.927,0,0,1,42.268-26.162ZM11.875,4.453A4.466,4.466,0,0,1,7.422,0a4.442,4.442,0,0,1,4.453-4.453A4.442,4.442,0,0,1,16.328,0,4.454,4.454,0,0,1,11.875,4.453Z" transform="translate(0.009 83.125)" fill="#fff"/>
</svg>
