<svg xmlns="http://www.w3.org/2000/svg" xmlns:xlink="http://www.w3.org/1999/xlink" width="169" height="45.388" viewBox="0 0 169 45.388">
  <defs>
    <clipPath id="clip-path">
      <rect width="169" height="45.388" fill="none"/>
    </clipPath>
  </defs>
  <g id="Logo_Lockup_full-color" clip-path="url(#clip-path)">
    <g id="Group_1" data-name="Group 1" transform="translate(-38 20)">
      <path id="path124" d="M101.157-31.123a16.652,16.652,0,0,1-4.184,10.2l4.373,4.373a22.516,22.516,0,0,0,5.911-14.555l-6.1-.016Z" transform="translate(-23.87 34.65)" fill="#6cb33f"/>
      <path id="path126" d="M38.009-87.575l-.016-5.752a22.5,22.5,0,0,0-14.556,5.911l4.038,4.038a16.631,16.631,0,0,1,10.534-4.2Z" transform="translate(21.853 73.326)" fill="#b2cee6"/>
      <path id="path128" d="M106.177-58.973l6.088.019a22.767,22.767,0,0,0-5.759-14.176l-1.463,8.85a16.765,16.765,0,0,1,1.134,5.307Z" transform="translate(-28.888 60.769)" fill="#002d62"/>
      <path id="path130" d="M14.265-70.455l-4.033-4.033A22.5,22.5,0,0,0,4.167-59.928l5.753.013a16.629,16.629,0,0,1,4.345-10.541Z" transform="translate(33.834 61.613)" fill="#fbb034"/>
      <path id="path134" d="M4.165-31.415a22.78,22.78,0,0,0,6.07,14.673l4.175-4.175A16.819,16.819,0,0,1,9.932-31.4l-5.767-.017Z" transform="translate(33.836 34.832)" fill="#f15d22"/>
      <path id="path136" d="M66.791,3.415l.014,6.108A22.519,22.519,0,0,0,81.364,3.455L77-.911A16.646,16.646,0,0,1,66.791,3.415Z" transform="translate(-5.104 15.865)" fill="#7c6a55"/>
      <path id="path138" d="M27.656-.465,23.462,3.729A22.781,22.781,0,0,0,38.135,9.8L38.12,3.71A16.791,16.791,0,0,1,27.656-.465Z" transform="translate(21.837 15.588)" fill="#005cab"/>
      <path id="path140" d="M90.412-70.431c.153.142.309.284.458.433.262.262.51.535.754.809a17.216,17.216,0,0,1,1.326,1.72l.6-3.648.31-1.873-1.067.176-4.456.738A16.512,16.512,0,0,1,90.412-70.431Z" transform="translate(-18.503 60.681)" fill="#f15d22"/>
      <path id="path3803-9" d="M123.329,242.05a2.457,2.457,0,1,1-2.455-2.354A2.406,2.406,0,0,1,123.329,242.05Z" transform="translate(-55.503 -245.232)" fill="#48413a"/>
      <path id="path3803-9-2" data-name="path3803-9" d="M123.329,242.05a2.457,2.457,0,1,1-2.455-2.354A2.406,2.406,0,0,1,123.329,242.05Z" transform="translate(-64.959 -245.232)" fill="#48413a"/>
      <path id="path124-3-7" d="M78.077,108.972a11.113,11.113,0,0,1-9.474-4.715,2.306,2.306,0,0,1,.786-3.177,2.335,2.335,0,0,1,3.179.758,6.534,6.534,0,0,0,5.509,2.508,6.681,6.681,0,0,0,5.54-2.513,2.336,2.336,0,0,1,3.205-.736,2.307,2.307,0,0,1,.74,3.188,11.294,11.294,0,0,1-9.486,4.686Z" transform="translate(-17.469 -95.516)" fill="#48413a"/>
      <path id="path132" d="M71.477-86.416l8.806-1.457A22.748,22.748,0,0,0,66.492-93.3l.016,5.772a16.869,16.869,0,0,1,4.969,1.112Z" transform="translate(-4.917 73.31)" fill="#005cab"/>
    </g>
    <text id="USABLE" transform="translate(61 30)" fill="#002d62" font-size="20" font-family="Montserrat-Regular, Montserrat" letter-spacing="0.25em"><tspan x="0" y="0">USABLE</tspan></text>
  </g>
</svg>
