<svg xmlns="http://www.w3.org/2000/svg" width="499.11" height="150.064" viewBox="0 0 499.11 150.064">
  <g id="Group_393" data-name="Group 393" transform="translate(-483.269 -1489)">
    <g id="Group_292" data-name="Group 292" transform="translate(483.269 1489)">
      <g id="logo" transform="translate(0 0)">
        <g id="Page-1">
          <g id=".logo2-notag-1">
            <rect id="Rectangle-path" width="11.444" height="52.024" transform="translate(175.441 46.964)" fill="#fff"/>
            <path id="Shape" d="M102.865,32.567H112.7V37.9h.221a13.442,13.442,0,0,1,11.5-6.277c11.11,0,13.886,6.194,13.886,15.527V70.313H127.863V49.01c0-6.194-1.833-9.249-6.638-9.249-5.555,0-8,3.139-8,10.8V70.286H102.865Z" transform="translate(90.796 28.757)" fill="#fff"/>
            <path id="Shape-2" data-name="Shape" d="M139.287,37.514h7.581v6.833h-7.581V62.984c0,3.5.859,4.361,4.36,4.361a16.175,16.175,0,0,0,3.195-.278V75.15a39.419,39.419,0,0,1-6.027.361c-6.334,0-11.889-1.444-11.889-8.944V44.347h-6.25V37.514h6.279V26.182h10.359Z" transform="translate(108.816 23.809)" fill="#fff"/>
            <path id="Shape-3" data-name="Shape" d="M146.926,53.979c.306,6.555,3.5,9.555,9.25,9.555a8.527,8.527,0,0,0,8.165-4.889h9.111a16.942,16.942,0,0,1-17.637,12.638c-11.86,0-19.248-8.166-19.248-19.832A18.887,18.887,0,0,1,154.4,31.564h1.417c12.832,0,19.025,10.777,18.276,22.387Zm16.833-6.555c-.945-5.25-3.195-8.027-8.333-8.027a8.165,8.165,0,0,0-8.61,7.722v.306Z" transform="translate(121.425 28.705)" fill="#fff"/>
            <path id="Shape-4" data-name="Shape" d="M158.618,32.679h9.832v7h.139a13.3,13.3,0,0,1,12.25-8.027,7.555,7.555,0,0,1,2.249.361v9.61a18.6,18.6,0,0,0-3.722-.361c-7.583,0-10.2,5.555-10.2,12.082V70.315H158.618Z" transform="translate(141.508 28.784)" fill="#fff"/>
            <path id="Shape-5" data-name="Shape" d="M173.4,32.709h9.832v5.138h.223a13.442,13.442,0,0,1,11.581-6.166c11.11,0,13.889,6.194,13.889,15.527V70.373H198.589V48.958c0-6.194-1.833-9.249-6.638-9.249-5.555,0-8,3.139-8,10.777V70.234H173.591Z" transform="translate(154.949 28.809)" fill="#fff"/>
            <path id="Shape-6" data-name="Shape" d="M204.279,53.979c.279,6.555,3.5,9.555,9.25,9.555a8.5,8.5,0,0,0,8.165-4.889h9.11a16.942,16.942,0,0,1-17.637,12.638c-11.86,0-19.22-8.166-19.22-19.832A18.887,18.887,0,0,1,211.78,31.564h1.388c12.832,0,19.027,10.777,18.3,22.387Zm16.833-6.555c-.945-5.25-3.221-8.027-8.333-8.027a8.166,8.166,0,0,0-8.5,7.833V47.4Z" transform="translate(173.618 28.705)" fill="#fff"/>
            <path id="Shape-7" data-name="Shape" d="M260.253,69.78H249.615L242.922,44.5h-.139L236.367,69.78H225.644L213.7,32.116h10.944L231.562,57.7h.138l6.25-25.581H248l6.416,25.5h.168l6.916-25.5h10.636Z" transform="translate(191.61 29.207)" fill="#fff"/>
            <path id="Shape-8" data-name="Shape" d="M254.274,58.034c0,4.527,3.859,6.333,7.944,6.333,3,0,6.777-1.167,6.777-4.805,0-3.139-4.306-4.222-11.721-5.833-5.973-1.305-11.944-3.416-11.944-10.055,0-9.61,8.333-12.11,16.388-12.11s15.8,2.778,16.665,12.027h-9.832c-.277-4-3.361-5.111-7.056-5.111-2.332,0-5.748.444-5.748,3.5,0,3.722,5.832,4.222,11.748,5.555s11.944,3.583,11.944,10.582c0,9.916-8.583,13.11-17.194,13.11S244.969,67.95,244.553,57.95Z" transform="translate(219.672 28.705)" fill="#fff"/>
            <path id="Shape-9" data-name="Shape" d="M30.111,62.346l7.944.722c0-6.361.194-10.416.194-10.416A261.469,261.469,0,0,1,2.807,49.542,74.994,74.994,0,0,0,28,88.261c-6.416-28.914-4.666-26.692,2.111-25.915Z" transform="translate(-0.213 45.057)" fill="#fbb034"/>
            <path id="Shape-10" data-name="Shape" d="M93.63,8.719A74.994,74.994,0,0,0,24.191,8.33a58.164,58.164,0,0,0-3.028,17.693,243.011,243.011,0,0,1,41.663-2.305c9.666,0,10.3.333,11.582,3.666V37.05c8.5,0,16.665,0,23.776.417A93.047,93.047,0,0,0,93.63,8.719Z" transform="translate(16.483 -0.003)" fill="#6cb33f"/>
            <path id="Shape-11" data-name="Shape" d="M40.122,76.572c-6-.805-5.75-3.278-5.777-5,0-.528,0-6.249-.25-13.888-7.444-.611-12.666-1.083-14.027-1.222-6.833-.806-8.583-3-2.166,25.859A74.994,74.994,0,0,0,122.754,72.072c-11.944,2.972-36.775,6.666-82.632,4.5Z" transform="translate(9.885 50.996)" fill="#f15d22"/>
            <path id="Shape-12" data-name="Shape" d="M59.113,4.567c5.555,14.166,4.611,38.886,4.75,40.358s-1.028,5.555,7.916,5.361a146.263,146.263,0,0,1,25,2.055A75.189,75.189,0,0,0,59.113,4.567Z" transform="translate(51 4.149)" fill="#626264"/>
            <path id="Shape-13" data-name="Shape" d="M49.4,48.495c3,0,21.276-.333,43.247-.194L92.286,16.22c-1.306-3.333-1.917-3.583-11.582-3.666a265.654,265.654,0,0,0-64.217,6.138A75.189,75.189,0,0,0,2.96,78.8c10.277.805,26.609,1.361,42.108,1.666L44.6,52.689s-.805-4.194,4.805-4.194Z" transform="translate(-1.449 11.329)" fill="#002d62"/>
            <path id="Shape-14" data-name="Shape" d="M129.477,32.82c-17.054-1.167-38.691-1.583-57.634-1.722l.306,26.887s.75,5.555-7.583,5.555c-4.305,0-21.693,0-40.275-.333.25,14.693.528,29.886.528,30.775,0,1.722-.222,4.166,5.777,5,45.941,2.194,70.8-1.528,82.716-4.444a74.717,74.717,0,0,0,17.5-47.83,75.673,75.673,0,0,0-1.333-13.888Z" transform="translate(19.328 28.281)" fill="#005cab"/>
            <path id="Shape-15" data-name="Shape" d="M72.4,58.058,72.1,31.171c-21.97,0-40.247,0-43.246.194-5.555,0-4.805,4.194-4.805,4.194l.472,27.775c18.582.389,35.942.445,40.275.333,8.388-.139,7.61-5.611,7.61-5.611Z" transform="translate(19.073 28.347)" fill="#b1bce0"/>
          </g>
        </g>
      </g>
    </g>
  </g>
</svg>
