<svg xmlns="http://www.w3.org/2000/svg" width="158.637" height="153" viewBox="0 0 158.637 153">
  <g id="usable-smile_vector" transform="translate(0.15 -0.044)">
    <path id="right-eye" d="M157.477,258.74a18.733,18.733,0,0,1-19,19c-10.916,0-20-8.5-20-19s9.084-19,20-19A18.734,18.734,0,0,1,157.477,258.74Z" transform="translate(-20.826 -239.696)" fill="#002d62"/>
    <path id="left-eye" data-name="path3803-9" d="M157.618,258.74a18.733,18.733,0,0,1-19,19c-10.916,0-20-8.5-20-19s9.084-19,20-19A18.734,18.734,0,0,1,157.618,258.74Z" transform="translate(-96.967 -239.696)" fill="#002d62"/>
    <path id="mouth" d="M146.917,166.856c-52.589,0-75.056-36.444-76-38-5.355-8.826-2.855-19.657,6-25,8.772-5.284,20.592-2.681,26,6,.785,1.2,13.465,20,44,20,31.035,0,44.871-19.785,45-20a19.019,19.019,0,0,1,26-6c8.779,5.475,11.478,16.257,6,25C222.946,130.4,199,166.856,146.917,166.856Z" transform="translate(-68.266 -13.812)" fill="#002d62"/>
  </g>
</svg>
