<svg xmlns="http://www.w3.org/2000/svg" width="8.577" height="8.577" viewBox="0 0 8.577 8.577"><defs><style>.a{fill:none;}.b{fill:#fff;}</style></defs><g transform="translate(-5.5 3.5)"><circle class="a" cx="3.864" cy="3.864" r="3.864" transform="translate(5.962 -3.076)"/><path class="b" d="M9.781-3.5a4.185,4.185,0,0,1,3.063,1.256,4.124,4.124,0,0,1,.919,1.382,4.367,4.367,0,0,1,.314,1.65,4.377,4.377,0,0,1-.31,1.65A3.937,3.937,0,0,1,12.852,3.8a4.407,4.407,0,0,1-1.424.95,4.269,4.269,0,0,1-1.646.329,4.168,4.168,0,0,1-1.627-.326A4.413,4.413,0,0,1,5.822,2.42,4.206,4.206,0,0,1,5.5.789,4.228,4.228,0,0,1,5.825-.846a4.306,4.306,0,0,1,.946-1.405A4.054,4.054,0,0,1,9.781-3.5Zm.016.774A3.324,3.324,0,0,0,7.322-1.7,3.687,3.687,0,0,0,6.545-.548,3.378,3.378,0,0,0,6.273.789a3.357,3.357,0,0,0,.272,1.329,3.553,3.553,0,0,0,.777,1.141,3.534,3.534,0,0,0,1.141.766A3.438,3.438,0,0,0,9.8,4.288a3.462,3.462,0,0,0,1.337-.268A3.7,3.7,0,0,0,12.3,3.247a3.3,3.3,0,0,0,1-2.458,3.521,3.521,0,0,0-.26-1.348,3.429,3.429,0,0,0-.758-1.134A3.394,3.394,0,0,0,9.8-2.726ZM9.742.076l-.575.3A.59.59,0,0,0,8.942.107.509.509,0,0,0,8.693.031q-.574,0-.574.758a.941.941,0,0,0,.145.551.491.491,0,0,0,.429.207.537.537,0,0,0,.529-.368l.528.268a1.26,1.26,0,0,1-.467.494A1.353,1.353,0,0,1,7.7,1.769a1.325,1.325,0,0,1-.352-.98A1.322,1.322,0,0,1,7.7-.184a1.213,1.213,0,0,1,.9-.36A1.2,1.2,0,0,1,9.742.076Zm2.474,0-.567.3a.589.589,0,0,0-.226-.268.521.521,0,0,0-.257-.077q-.574,0-.575.758a.941.941,0,0,0,.146.551.49.49,0,0,0,.429.207.537.537,0,0,0,.528-.368l.536.268a1.316,1.316,0,0,1-.475.494,1.237,1.237,0,0,1-.651.18,1.248,1.248,0,0,1-.93-.352,1.332,1.332,0,0,1-.349-.98,1.321,1.321,0,0,1,.356-.973,1.212,1.212,0,0,1,.9-.36A1.185,1.185,0,0,1,12.216.076Z"/></g></svg>