<svg xmlns="http://www.w3.org/2000/svg" width="167.52" height="45.388" viewBox="0 0 167.52 45.388">
  <g id="logo_horizontal-lockup_blk" transform="translate(-2078 -5327)">
    <g id="Group_1" data-name="Group 1" transform="translate(2040 5347)">
      <path id="path124" d="M101.157-31.123a16.652,16.652,0,0,1-4.184,10.2l4.373,4.373a22.516,22.516,0,0,0,5.911-14.555l-6.1-.016Z" transform="translate(-23.87 34.65)"/>
      <path id="path126" d="M38.009-87.575l-.016-5.752a22.5,22.5,0,0,0-14.556,5.911l4.038,4.038a16.631,16.631,0,0,1,10.534-4.2Z" transform="translate(21.853 73.326)"/>
      <path id="path128" d="M106.177-58.973l6.088.019a22.767,22.767,0,0,0-5.759-14.176l-1.463,8.85a16.765,16.765,0,0,1,1.134,5.307Z" transform="translate(-28.888 60.769)"/>
      <path id="path130" d="M14.265-70.455l-4.033-4.033A22.5,22.5,0,0,0,4.167-59.928l5.753.013a16.629,16.629,0,0,1,4.345-10.541Z" transform="translate(33.834 61.613)"/>
      <path id="path134" d="M4.165-31.415a22.78,22.78,0,0,0,6.07,14.673l4.175-4.175A16.819,16.819,0,0,1,9.932-31.4l-5.767-.017Z" transform="translate(33.836 34.832)"/>
      <path id="path136" d="M66.791,3.415l.014,6.108A22.519,22.519,0,0,0,81.364,3.455L77-.911A16.646,16.646,0,0,1,66.791,3.415Z" transform="translate(-5.104 15.865)"/>
      <path id="path138" d="M27.656-.465,23.462,3.729A22.781,22.781,0,0,0,38.135,9.8L38.12,3.71A16.791,16.791,0,0,1,27.656-.465Z" transform="translate(21.837 15.588)"/>
      <path id="path140" d="M90.412-70.431c.153.142.309.284.458.433.262.262.51.535.754.809a17.216,17.216,0,0,1,1.326,1.72l.6-3.648.31-1.873-1.067.176-4.456.738A16.512,16.512,0,0,1,90.412-70.431Z" transform="translate(-18.503 60.681)"/>
      <path id="path3803-9" d="M123.329,242.05a2.457,2.457,0,1,1-2.455-2.354A2.406,2.406,0,0,1,123.329,242.05Z" transform="translate(-55.503 -245.232)"/>
      <path id="path3803-9-2" data-name="path3803-9" d="M123.329,242.05a2.457,2.457,0,1,1-2.455-2.354A2.406,2.406,0,0,1,123.329,242.05Z" transform="translate(-64.959 -245.232)"/>
      <path id="path124-3-7" d="M78.077,108.972a11.113,11.113,0,0,1-9.474-4.715,2.306,2.306,0,0,1,.786-3.177,2.335,2.335,0,0,1,3.179.758,6.534,6.534,0,0,0,5.509,2.508,6.681,6.681,0,0,0,5.54-2.513,2.336,2.336,0,0,1,3.205-.736,2.307,2.307,0,0,1,.74,3.188,11.294,11.294,0,0,1-9.486,4.686Z" transform="translate(-17.469 -95.516)"/>
      <path id="path132" d="M71.477-86.416l8.806-1.457A22.748,22.748,0,0,0,66.492-93.3l.016,5.772a16.869,16.869,0,0,1,4.969,1.112Z" transform="translate(-4.917 73.31)"/>
    </g>
    <path id="Path_14" data-name="Path 14" d="M7.92.12A5.647,5.647,0,0,1,3.68-1.44,6.248,6.248,0,0,1,2.16-5.98V-14H3.64v7.96A5.236,5.236,0,0,0,4.74-2.4,4.1,4.1,0,0,0,7.92-1.2a4.124,4.124,0,0,0,3.2-1.2,5.236,5.236,0,0,0,1.1-3.64V-14h1.44v8.02a6.274,6.274,0,0,1-1.51,4.54A5.613,5.613,0,0,1,7.92.12Zm19.06,0a8.993,8.993,0,0,1-2.99-.5A5.494,5.494,0,0,1,21.78-1.7l.58-1.14a5.553,5.553,0,0,0,2.02,1.23,7.381,7.381,0,0,0,2.6.47,4.753,4.753,0,0,0,2.82-.69,2.125,2.125,0,0,0,.94-1.79,1.791,1.791,0,0,0-.51-1.34,3.443,3.443,0,0,0-1.25-.77,20.216,20.216,0,0,0-2.06-.59,21.643,21.643,0,0,1-2.52-.77,4.138,4.138,0,0,1-1.61-1.13,3,3,0,0,1-.67-2.06,3.492,3.492,0,0,1,.56-1.93A3.836,3.836,0,0,1,24.4-13.6a7.041,7.041,0,0,1,2.88-.52,8.478,8.478,0,0,1,2.35.33,6.753,6.753,0,0,1,1.99.91l-.5,1.18a6.882,6.882,0,0,0-1.88-.87,7.017,7.017,0,0,0-1.96-.29,4.524,4.524,0,0,0-2.77.71,2.2,2.2,0,0,0-.93,1.83,1.825,1.825,0,0,0,.51,1.35,3.341,3.341,0,0,0,1.28.78q.77.27,2.07.59a20.826,20.826,0,0,1,2.49.75,4.087,4.087,0,0,1,1.61,1.12A2.964,2.964,0,0,1,32.2-3.7a3.447,3.447,0,0,1-.57,1.93A3.831,3.831,0,0,1,29.88-.39,7.31,7.31,0,0,1,26.98.12ZM49.2-3.74H41.4L39.72,0H38.18l6.4-14h1.46l6.4,14H50.88Zm-.54-1.2L45.3-12.46,41.94-4.94ZM68.58-7.22a3.712,3.712,0,0,1,2.13,1.19,3.432,3.432,0,0,1,.75,2.29A3.222,3.222,0,0,1,70.13-.97,6.635,6.635,0,0,1,66.2,0H59.76V-14H65.8a6.077,6.077,0,0,1,3.63.94,3.1,3.1,0,0,1,1.29,2.66,3.336,3.336,0,0,1-.57,1.97A3.417,3.417,0,0,1,68.58-7.22Zm-7.34-5.56V-7.7H65.7a4.5,4.5,0,0,0,2.62-.65,2.169,2.169,0,0,0,.92-1.89,2.169,2.169,0,0,0-.92-1.89,4.5,4.5,0,0,0-2.62-.65ZM66.18-1.22a5.147,5.147,0,0,0,2.84-.64,2.233,2.233,0,0,0,.96-2q0-2.62-3.8-2.62H61.24v5.26ZM79.84-14h1.48V-1.28h7.84V0H79.84ZM106.52-1.28V0h-9.9V-14h9.6v1.28H98.1v4.98h7.24v1.26H98.1v5.2Z" transform="translate(2139 5357)"/>
  </g>
</svg>
