<svg xmlns="http://www.w3.org/2000/svg" xmlns:xlink="http://www.w3.org/1999/xlink" width="414.182" height="573.093" viewBox="0 0 414.182 573.093">
  <defs>
    <clipPath id="clip-path">
      <rect id="Rectangle_5" data-name="Rectangle 5" width="414.182" height="573.093" transform="translate(129 80)" fill="#fff" stroke="#707070" stroke-width="1"/>
    </clipPath>
  </defs>
  <g id="logo-pieces-background_landing-page_mobile" transform="translate(-129 -80)" clip-path="url(#clip-path)">
    <path id="path124" d="M133.449-31.123A145.162,145.162,0,0,1,96.973,57.77L135.1,95.893a196.275,196.275,0,0,0,51.53-126.879l-53.177-.137Z" transform="translate(-75.638 376.383)" fill="#6cb33f"/>
    <path id="path132" d="M109.948-33.291l76.767-12.7A198.3,198.3,0,0,0,66.492-93.3l.141,50.317a147.052,147.052,0,0,1,43.315,9.691Z" transform="translate(205.585 233.556)" fill="#005cab"/>
    <path id="path140" d="M106.4-50.686c1.338,1.236,2.695,2.478,3.994,3.778,2.285,2.285,4.443,4.66,6.57,7.053a150.1,150.1,0,0,1,11.558,15l5.26-31.8,2.705-16.328-9.3,1.531-38.84,6.434A143.938,143.938,0,0,1,106.4-50.686Z" transform="translate(241.129 588.756)" fill="#f15d22"/>
    <path id="path130" d="M92.2-39.33,57.038-74.488A196.175,196.175,0,0,0,4.167,52.438l50.151.115A144.958,144.958,0,0,1,92.2-39.33Z" transform="translate(55.789 276.768)" fill="#fbb034"/>
    <path id="path3803-9" d="M175.475,267.05c0,15.107-12.772,27.354-28.527,27.354S118.42,282.157,118.42,267.05,131.192,239.7,146.947,239.7,175.475,251.943,175.475,267.05Z" transform="translate(-153.802 53.306)" fill="#48413a"/>
    <path id="path3803-9-2" data-name="path3803-9" d="M175.475,267.05c0,15.107-12.772,27.354-28.527,27.354S118.42,282.157,118.42,267.05,131.192,239.7,146.947,239.7,175.475,251.943,175.475,267.05Z" transform="translate(384.235 342.306)" fill="#48413a"/>
    <path id="path126" d="M151.52-42.77l-.142-50.556A197.782,197.782,0,0,0,23.437-41.373l35.5,35.5a146.182,146.182,0,0,1,92.587-36.894Z" transform="translate(103.577 232.104)" fill="#b2cee6"/>
  </g>
</svg>
