<svg xmlns="http://www.w3.org/2000/svg" xmlns:xlink="http://www.w3.org/1999/xlink" width="1440" height="821" viewBox="0 0 1440 821">
  <defs>
    <clipPath id="clip-path">
      <rect id="Rectangle_5" data-name="Rectangle 5" width="1440" height="821" transform="translate(0 80)" fill="#fff" stroke="#707070" stroke-width="1"/>
    </clipPath>
  </defs>
  <g id="Mask_Group_1" data-name="Mask Group 1" transform="translate(0 -80)" clip-path="url(#clip-path)">
    <path id="path124" d="M149.227-31.123A207.956,207.956,0,0,1,96.973,96.223l54.616,54.613A281.179,281.179,0,0,0,225.41-30.927l-76.18-.2Z" transform="translate(-106.41 491.128)" fill="#6cb33f"/>
    <path id="path132" d="M128.746-7.333,238.721-25.525A284.076,284.076,0,0,0,66.492-93.3l.2,72.083A210.663,210.663,0,0,1,128.746-7.334Z" transform="translate(283.279 259.622)" fill="#005cab"/>
    <path id="path140" d="M114.206-41.038c1.916,1.77,3.86,3.55,5.722,5.412,3.274,3.274,6.366,6.676,9.411,10.1A215.03,215.03,0,0,1,145.9-4.039L153.433-49.6l3.876-23.392L143.982-70.8,88.341-61.578A206.2,206.2,0,0,1,114.206-41.038Z" transform="translate(1062.691 363.244)" fill="#f15d22"/>
    <path id="path130" d="M130.275-24.121,79.908-74.488A281.036,281.036,0,0,0,4.167,107.343l71.845.165a207.663,207.663,0,0,1,54.263-131.63Z" transform="translate(41.725 329.663)" fill="#fbb034"/>
    <path id="path3803-9" d="M200.155,278.883c0,21.642-18.3,39.187-40.868,39.187s-40.868-17.545-40.868-39.187,18.3-39.187,40.868-39.187S200.155,257.24,200.155,278.883Z" transform="translate(-180.568 145.445)" fill="#48413a"/>
    <path id="path3803-9-2" data-name="path3803-9" d="M200.155,278.883c0,21.642-18.3,39.187-40.868,39.187s-40.868-17.545-40.868-39.187,18.3-39.187,40.868-39.187S200.155,257.24,200.155,278.883Z" transform="translate(1280.712 145.445)" fill="#48413a"/>
    <path id="path126" d="M206.925-20.9l-.2-72.425A283.337,283.337,0,0,0,23.437-18.9L74.287,31.951A209.417,209.417,0,0,1,206.925-20.9Z" transform="translate(118.519 258.66)" fill="#b2cee6"/>
  </g>
</svg>
