<svg xmlns="http://www.w3.org/2000/svg" width="346.936" height="346.934" viewBox="0 0 346.936 346.934">
  <g id="usable-circle_vector" transform="translate(0 0)">
    <path id="path124" d="M128.957-31.123A127.288,127.288,0,0,1,96.973,46.824L130.4,80.253A172.107,172.107,0,0,0,175.588-31l-46.629-.12Z" transform="translate(171.348 210.96)" fill="#1268b1"/>
    <path id="path126" d="M134.821-49.361,134.7-93.326A172,172,0,0,0,23.437-48.147L54.3-17.278a127.124,127.124,0,0,1,80.516-32.084Z" transform="translate(32.281 93.326)" fill="#1268b1"/>
    <path id="path128" d="M113.71,35.078l46.534.148A174.026,174.026,0,0,0,116.227-73.13L105.043-5.485a128.156,128.156,0,0,1,8.667,40.563Z" transform="translate(186.609 131.521)" fill="#1268b1"/>
    <path id="path130" d="M81.356-43.659,50.528-74.488a172.019,172.019,0,0,0-46.36,111.3l43.975.1A127.108,127.108,0,0,1,81.356-43.659Z" transform="translate(-4.16 128.951)" fill="#1268b1"/>
    <path id="path132" d="M104.6-40.681l67.314-11.135A173.88,173.88,0,0,0,66.492-93.3l.124,44.121a128.946,128.946,0,0,1,37.981,8.5Z" transform="translate(113.703 93.376)" fill="#1268b1"/>
    <path id="path134" d="M4.164-31.415a174.122,174.122,0,0,0,46.4,112.157L82.477,48.83A128.562,128.562,0,0,1,48.247-31.286Z" transform="translate(-4.164 210.407)" fill="#1268b1"/>
    <path id="path136" d="M66.791,32.154,66.9,78.839A172.133,172.133,0,0,0,178.18,32.461L144.808-.911A127.24,127.24,0,0,1,66.791,32.154Z" transform="translate(114.27 268.095)" fill="#1268b1"/>
    <path id="path138" d="M55.519-.465,23.462,31.592a174.13,174.13,0,0,0,112.156,46.4L135.5,31.448A128.349,128.349,0,0,1,55.519-.465Z" transform="translate(32.33 268.938)" fill="#1268b1"/>
    <path id="path140" d="M104.173-53.432c1.173,1.084,2.363,2.173,3.5,3.312,2,2,3.9,4.086,5.761,6.185a131.624,131.624,0,0,1,10.135,13.149l4.612-27.886,2.372-14.318L122.4-71.646,88.341-66A126.217,126.217,0,0,1,104.173-53.432Z" transform="translate(155.023 131.786)" fill="#1268b1"/>
  </g>
</svg>
